<?xml version="1.0" encoding="utf-8"?>
<!-- Generator: Adobe Illustrator 25.4.1, SVG Export Plug-In . SVG Version: 6.00 Build 0)  -->
<svg version="1.1" id="Layer_1" xmlns="http://www.w3.org/2000/svg" xmlns:xlink="http://www.w3.org/1999/xlink" x="0px" y="0px"
	 viewBox="0 0 800 1200" style="enable-background:new 0 0 800 1200;" xml:space="preserve">
<style type="text/css">
	.st0{fill:#222222;}
</style>
<g>
	<g>
		<path class="st0" d="M242.15,280.64c9.23,81.94,51.82,158.87,115.13,211.49c15.81,13.14,32.9,24.74,51.01,34.48
			c20,10.75,41.1,19.22,61.7,28.7c20.78,9.56,41.35,20.25,58.86,35.14c15.48,13.16,27.89,29.5,36.62,47.85
			c17.96,37.77,20.32,81.73,12.63,122.39c-8.5,44.91-29.01,89.56-64.93,118.88c-19.56,15.97-41.76,28.82-63.27,41.94
			c-21.77,13.27-43.9,26.03-66.84,37.19c-23.04,11.21-46.89,20.65-71.6,27.48c-25.74,7.12-52.04,11.93-77.99,18.19
			c-44.02,10.63-85.45,27.75-122.72,53.7c-34.38,23.94-64.44,54.07-88.06,88.69c-5.96,8.74-11.48,17.76-16.59,27.01
			c-0.23,0.42,0.41,0.8,0.65,0.38c42.74-77.35,115.94-136.6,200.61-162.02c25.58-7.68,51.86-12.63,77.87-18.62
			c25.47-5.86,50.39-13.21,74.5-23.38c46.05-19.44,89.58-45.96,131.2-73.49c19.6-12.97,37.81-27.69,51.52-46.98
			c13.04-18.34,22.58-39.36,29.34-60.77c12-38.02,15.17-79.73,5.71-118.67c-4.53-18.66-12.1-36.64-22.98-52.5
			c-11.49-16.74-26.55-30.41-43.55-41.42c-37.65-24.39-81.65-36.61-119.66-60.44c-72.19-45.24-124.91-120.45-143.19-203.63
			c-2.29-10.44-4.02-20.98-5.21-31.6C242.85,280.17,242.1,280.16,242.15,280.64L242.15,280.64z"/>
	</g>
</g>
</svg>
